<mxfile host="app.diagrams.net" modified="2023-05-07T04:25:24.933Z" agent="Mozilla/5.0 (Windows NT 10.0; Win64; x64; rv:102.0) Gecko/20100101 Firefox/102.0" etag="IBgaZWDvHhAhefBFv7Fv" version="21.2.9" type="github">
  <diagram name="Page-1" id="xeT4QsOtoPLhmlXAMr09">
    <mxGraphModel dx="2318" dy="898" grid="1" gridSize="10" guides="1" tooltips="1" connect="1" arrows="1" fold="1" page="1" pageScale="1" pageWidth="1100" pageHeight="850" math="0" shadow="0">
      <root>
        <mxCell id="0" />
        <mxCell id="1" parent="0" />
        <mxCell id="_vzEHb9eV301aXtu4yev-1" value="" style="sketch=0;outlineConnect=0;fontColor=#232F3E;gradientColor=none;fillColor=#B0084D;strokeColor=none;dashed=0;verticalLabelPosition=bottom;verticalAlign=top;align=center;html=1;fontSize=12;fontStyle=0;aspect=fixed;pointerEvents=1;shape=mxgraph.aws4.endpoint;" parent="1" vertex="1">
          <mxGeometry x="291" y="476" width="78" height="78" as="geometry" />
        </mxCell>
        <mxCell id="_vzEHb9eV301aXtu4yev-2" value="" style="sketch=0;outlineConnect=0;fontColor=#232F3E;gradientColor=none;fillColor=#D45B07;strokeColor=none;dashed=0;verticalLabelPosition=bottom;verticalAlign=top;align=center;html=1;fontSize=12;fontStyle=0;aspect=fixed;pointerEvents=1;shape=mxgraph.aws4.lambda_function;" parent="1" vertex="1">
          <mxGeometry x="442" y="491" width="48" height="48" as="geometry" />
        </mxCell>
        <mxCell id="_vzEHb9eV301aXtu4yev-8" value="" style="edgeStyle=orthogonalEdgeStyle;rounded=0;orthogonalLoop=1;jettySize=auto;html=1;" parent="1" source="_vzEHb9eV301aXtu4yev-3" target="_vzEHb9eV301aXtu4yev-5" edge="1">
          <mxGeometry relative="1" as="geometry" />
        </mxCell>
        <mxCell id="_vzEHb9eV301aXtu4yev-9" value="" style="edgeStyle=orthogonalEdgeStyle;rounded=0;orthogonalLoop=1;jettySize=auto;html=1;" parent="1" source="_vzEHb9eV301aXtu4yev-3" target="_vzEHb9eV301aXtu4yev-6" edge="1">
          <mxGeometry relative="1" as="geometry" />
        </mxCell>
        <mxCell id="_vzEHb9eV301aXtu4yev-3" value="" style="sketch=0;outlineConnect=0;fontColor=#232F3E;gradientColor=none;fillColor=#3F8624;strokeColor=none;dashed=0;verticalLabelPosition=bottom;verticalAlign=top;align=center;html=1;fontSize=12;fontStyle=0;aspect=fixed;pointerEvents=1;shape=mxgraph.aws4.bucket_with_objects;" parent="1" vertex="1">
          <mxGeometry x="582" y="475" width="75" height="78" as="geometry" />
        </mxCell>
        <mxCell id="_vzEHb9eV301aXtu4yev-4" value="" style="sketch=0;points=[[0,0,0],[0.25,0,0],[0.5,0,0],[0.75,0,0],[1,0,0],[0,1,0],[0.25,1,0],[0.5,1,0],[0.75,1,0],[1,1,0],[0,0.25,0],[0,0.5,0],[0,0.75,0],[1,0.25,0],[1,0.5,0],[1,0.75,0]];outlineConnect=0;fontColor=#232F3E;gradientColor=#4AB29A;gradientDirection=north;fillColor=#116D5B;strokeColor=#ffffff;dashed=0;verticalLabelPosition=bottom;verticalAlign=top;align=center;html=1;fontSize=12;fontStyle=0;aspect=fixed;shape=mxgraph.aws4.resourceIcon;resIcon=mxgraph.aws4.rekognition_2;" parent="1" vertex="1">
          <mxGeometry x="772" y="629" width="78" height="78" as="geometry" />
        </mxCell>
        <mxCell id="_vzEHb9eV301aXtu4yev-14" value="" style="edgeStyle=orthogonalEdgeStyle;rounded=0;orthogonalLoop=1;jettySize=auto;html=1;entryX=0;entryY=0.5;entryDx=0;entryDy=0;entryPerimeter=0;" parent="1" source="_vzEHb9eV301aXtu4yev-5" target="_vzEHb9eV301aXtu4yev-4" edge="1">
          <mxGeometry relative="1" as="geometry">
            <mxPoint x="723.5005459384452" y="668" as="targetPoint" />
          </mxGeometry>
        </mxCell>
        <mxCell id="_vzEHb9eV301aXtu4yev-5" value="" style="sketch=0;outlineConnect=0;fontColor=#232F3E;gradientColor=none;fillColor=#D45B07;strokeColor=none;dashed=0;verticalLabelPosition=bottom;verticalAlign=top;align=center;html=1;fontSize=12;fontStyle=0;aspect=fixed;pointerEvents=1;shape=mxgraph.aws4.lambda_function;" parent="1" vertex="1">
          <mxGeometry x="595.5" y="644" width="48" height="48" as="geometry" />
        </mxCell>
        <mxCell id="_vzEHb9eV301aXtu4yev-10" value="" style="edgeStyle=orthogonalEdgeStyle;rounded=0;orthogonalLoop=1;jettySize=auto;html=1;" parent="1" source="_vzEHb9eV301aXtu4yev-6" target="_vzEHb9eV301aXtu4yev-7" edge="1">
          <mxGeometry relative="1" as="geometry" />
        </mxCell>
        <mxCell id="_vzEHb9eV301aXtu4yev-6" value="" style="sketch=0;outlineConnect=0;fontColor=#232F3E;gradientColor=none;fillColor=#D45B07;strokeColor=none;dashed=0;verticalLabelPosition=bottom;verticalAlign=top;align=center;html=1;fontSize=12;fontStyle=0;aspect=fixed;pointerEvents=1;shape=mxgraph.aws4.lambda_function;" parent="1" vertex="1">
          <mxGeometry x="595.5" y="324" width="48" height="48" as="geometry" />
        </mxCell>
        <mxCell id="_vzEHb9eV301aXtu4yev-7" value="" style="sketch=0;points=[[0,0,0],[0.25,0,0],[0.5,0,0],[0.75,0,0],[1,0,0],[0,1,0],[0.25,1,0],[0.5,1,0],[0.75,1,0],[1,1,0],[0,0.25,0],[0,0.5,0],[0,0.75,0],[1,0.25,0],[1,0.5,0],[1,0.75,0]];outlineConnect=0;fontColor=#232F3E;gradientColor=#4AB29A;gradientDirection=north;fillColor=#116D5B;strokeColor=#ffffff;dashed=0;verticalLabelPosition=bottom;verticalAlign=top;align=center;html=1;fontSize=12;fontStyle=0;aspect=fixed;shape=mxgraph.aws4.resourceIcon;resIcon=mxgraph.aws4.textract;" parent="1" vertex="1">
          <mxGeometry x="762" y="309" width="78" height="78" as="geometry" />
        </mxCell>
        <mxCell id="_vzEHb9eV301aXtu4yev-17" value="" style="image;aspect=fixed;perimeter=ellipsePerimeter;html=1;align=center;shadow=0;dashed=0;spacingTop=3;image=img/lib/active_directory/documents.svg;" parent="1" vertex="1">
          <mxGeometry x="695.7" y="461" width="33" height="50" as="geometry" />
        </mxCell>
        <mxCell id="_vzEHb9eV301aXtu4yev-20" value="" style="dashed=0;outlineConnect=0;html=1;align=center;labelPosition=center;verticalLabelPosition=bottom;verticalAlign=top;shape=mxgraph.weblogos.json_2" parent="1" vertex="1">
          <mxGeometry x="672" y="534.8" width="80.4" height="25.200000000000003" as="geometry" />
        </mxCell>
        <mxCell id="_vzEHb9eV301aXtu4yev-21" value="" style="edgeStyle=orthogonalEdgeStyle;html=1;endArrow=none;elbow=vertical;startArrow=block;startFill=1;strokeColor=#545B64;rounded=0;entryX=0.5;entryY=0;entryDx=0;entryDy=0;entryPerimeter=0;" parent="1" source="_vzEHb9eV301aXtu4yev-20" target="_vzEHb9eV301aXtu4yev-4" edge="1">
          <mxGeometry width="100" relative="1" as="geometry">
            <mxPoint x="822" y="574" as="sourcePoint" />
            <mxPoint x="922" y="574" as="targetPoint" />
          </mxGeometry>
        </mxCell>
        <mxCell id="_vzEHb9eV301aXtu4yev-22" value="" style="edgeStyle=orthogonalEdgeStyle;html=1;endArrow=none;elbow=vertical;startArrow=block;startFill=1;strokeColor=#545B64;rounded=0;entryX=0.5;entryY=1;entryDx=0;entryDy=0;entryPerimeter=0;exitX=1;exitY=0.5;exitDx=0;exitDy=0;" parent="1" source="_vzEHb9eV301aXtu4yev-17" target="_vzEHb9eV301aXtu4yev-7" edge="1">
          <mxGeometry width="100" relative="1" as="geometry">
            <mxPoint x="822" y="574" as="sourcePoint" />
            <mxPoint x="922" y="574" as="targetPoint" />
          </mxGeometry>
        </mxCell>
        <mxCell id="_vzEHb9eV301aXtu4yev-24" value="" style="edgeStyle=orthogonalEdgeStyle;html=1;endArrow=none;elbow=vertical;startArrow=block;startFill=1;strokeColor=#545B64;rounded=0;" parent="1" source="_vzEHb9eV301aXtu4yev-2" target="_vzEHb9eV301aXtu4yev-3" edge="1">
          <mxGeometry width="100" relative="1" as="geometry">
            <mxPoint x="472" y="574" as="sourcePoint" />
            <mxPoint x="572" y="574" as="targetPoint" />
          </mxGeometry>
        </mxCell>
        <mxCell id="_vzEHb9eV301aXtu4yev-25" value="" style="edgeStyle=orthogonalEdgeStyle;html=1;endArrow=none;elbow=vertical;startArrow=block;startFill=1;strokeColor=#545B64;rounded=0;" parent="1" source="_vzEHb9eV301aXtu4yev-1" target="_vzEHb9eV301aXtu4yev-2" edge="1">
          <mxGeometry width="100" relative="1" as="geometry">
            <mxPoint x="822" y="574" as="sourcePoint" />
            <mxPoint x="922" y="574" as="targetPoint" />
          </mxGeometry>
        </mxCell>
        <mxCell id="_vzEHb9eV301aXtu4yev-26" value="" style="sketch=0;points=[[0,0,0],[0.25,0,0],[0.5,0,0],[0.75,0,0],[1,0,0],[0,1,0],[0.25,1,0],[0.5,1,0],[0.75,1,0],[1,1,0],[0,0.25,0],[0,0.5,0],[0,0.75,0],[1,0.25,0],[1,0.5,0],[1,0.75,0]];outlineConnect=0;fontColor=#232F3E;gradientColor=#945DF2;gradientDirection=north;fillColor=#5A30B5;strokeColor=#ffffff;dashed=0;verticalLabelPosition=bottom;verticalAlign=top;align=center;html=1;fontSize=12;fontStyle=0;aspect=fixed;shape=mxgraph.aws4.resourceIcon;resIcon=mxgraph.aws4.athena;" parent="1" vertex="1">
          <mxGeometry x="960" y="475" width="78" height="78" as="geometry" />
        </mxCell>
        <mxCell id="uZHni9n2dp_AqFk2JdRS-5" value="" style="image;aspect=fixed;html=1;points=[];align=center;fontSize=12;image=img/lib/azure2/general/Folder_Website.svg;" parent="1" vertex="1">
          <mxGeometry x="298" y="303" width="68" height="56.00000000000001" as="geometry" />
        </mxCell>
        <mxCell id="uZHni9n2dp_AqFk2JdRS-6" value="" style="edgeStyle=orthogonalEdgeStyle;html=1;endArrow=block;elbow=vertical;startArrow=none;endFill=1;strokeColor=#545B64;rounded=0;entryX=0.461;entryY=0.905;entryDx=0;entryDy=0;entryPerimeter=0;" parent="1" source="_vzEHb9eV301aXtu4yev-1" target="uZHni9n2dp_AqFk2JdRS-5" edge="1">
          <mxGeometry width="100" relative="1" as="geometry">
            <mxPoint x="360" y="444" as="sourcePoint" />
            <mxPoint x="360" y="380" as="targetPoint" />
          </mxGeometry>
        </mxCell>
        <mxCell id="uZHni9n2dp_AqFk2JdRS-8" value="" style="html=1;endArrow=none;elbow=vertical;startArrow=block;startFill=1;strokeColor=#545B64;rounded=0;exitX=0.936;exitY=0.625;exitDx=0;exitDy=0;exitPerimeter=0;" parent="1" source="uZHni9n2dp_AqFk2JdRS-5" target="_vzEHb9eV301aXtu4yev-3" edge="1">
          <mxGeometry width="100" relative="1" as="geometry">
            <mxPoint x="360" y="360" as="sourcePoint" />
            <mxPoint x="460" y="350" as="targetPoint" />
          </mxGeometry>
        </mxCell>
      </root>
    </mxGraphModel>
  </diagram>
</mxfile>
